<svg height="64px" width="64px" version="1.1" id="Layer_1" xmlns="http://www.w3.org/2000/svg" xmlns:xlink="http://www.w3.org/1999/xlink" viewBox="0 0 512 512" xml:space="preserve" fill="#000000"><g id="SVGRepo_bgCarrier" stroke-width="0"></g><g id="SVGRepo_tracerCarrier" stroke-linecap="round" stroke-linejoin="round"></g><g id="SVGRepo_iconCarrier"> <path style="fill:#CCCCCC;" d="M255.999,512c-38.654,0-75.126-6.898-102.695-19.422c-29.671-13.478-46.01-32.194-46.01-52.697 s16.341-39.218,46.01-52.697c27.57-12.525,64.041-19.422,102.695-19.422s75.126,6.898,102.696,19.422 c29.671,13.478,46.01,32.194,46.01,52.697s-16.341,39.218-46.01,52.697C331.125,505.103,294.654,512,255.999,512z M255.999,384.493 c-36.318,0-70.332,6.366-95.775,17.924c-23.005,10.451-36.2,24.106-36.2,37.464s13.194,27.014,36.2,37.464 c25.443,11.559,59.457,17.924,95.775,17.924s70.332-6.366,95.777-17.924c23.005-10.451,36.2-24.106,36.2-37.464 s-13.194-27.014-36.2-37.464C326.332,390.859,292.317,384.493,255.999,384.493z"></path> <path style="fill:#FC583D;" d="M429.361,129.533c-50.313-172.711-296.409-172.711-346.722,0 c-6.457,22.166-9.919,45.607-9.919,69.859c0,114.838,77.636,211.528,183.28,240.489C361.645,410.92,439.28,314.23,439.28,199.392 C439.28,175.14,435.818,151.699,429.361,129.533z"></path> <circle style="fill:#E6E6E6;" cx="256.005" cy="184.665" r="112.766"></circle> <path style="fill:#CCCCCC;" d="M192.316,184.658c0-53.848,37.747-98.873,88.222-110.075c-7.9-1.753-16.111-2.686-24.539-2.686 c-62.276,0-112.761,50.485-112.761,112.761S193.723,297.42,256,297.42c8.428,0,16.638-0.932,24.539-2.686 C230.063,283.531,192.316,238.507,192.316,184.658z"></path> <polygon style="fill:#FFCA6C;" points="256,113.544 276.9,155.892 323.634,162.683 289.817,195.647 297.799,242.192 256,220.216 214.2,242.192 222.183,195.647 188.366,162.683 235.1,155.892 "></polygon> </g></svg>